<?xml version="1.0" encoding="UTF-8"?>
<!DOCTYPE svg PUBLIC "-//W3C//DTD SVG 1.0//EN" "http://www.w3.org/TR/2001/REC-SVG-20010904/DTD/svg10.dtd">
<!-- Creator: CorelDRAW 2018 -->
<svg xmlns="http://www.w3.org/2000/svg" xml:space="preserve" width="297mm" height="210mm" version="1.0" style="shape-rendering:geometricPrecision; text-rendering:geometricPrecision; image-rendering:optimizeQuality; fill-rule:evenodd; clip-rule:evenodd"
viewBox="0 0 29700 21000"
 xmlns:xlink="http://www.w3.org/1999/xlink">
 <defs>
  <style type="text/css">
   <![CDATA[
    .str0 {stroke:#2B2A29;stroke-width:20;stroke-miterlimit:22.9256}
    .str1 {stroke:#FEFEFE;stroke-width:10;stroke-miterlimit:22.9256}
    .fil3 {fill:#FEFEFE}
    .fil0 {fill:black}
    .fil1 {fill:#FEFEFE;fill-rule:nonzero}
    .fil2 {fill:#EF7F1A;fill-rule:nonzero}
   ]]>
  </style>
 </defs>
 <g id="Слой_x0020_1">
  <metadata id="CorelCorpID_0Corel-Layer"/>
  <rect class="fil0 str0" x="1083.28" y="6575.93" width="28000" height="8000"/>
  <path class="fil1" d="M4080.8 11144.93l657.37 174.32c-100.95,319.6 -269.2,556.76 -503.99,712.17 -234.77,154.73 -532.15,232.43 -892.91,232.43 -446.85,0 -813.88,-131.76 -1101.87,-395.27 -287.21,-263.51 -431.2,-623.65 -431.2,-1081.08 0,-483.11 144.78,-858.78 433.54,-1126.35 288.78,-267.57 669.11,-401.35 1140.22,-401.35 411.64,0 745.8,105.4 1002.48,315.54 153.38,124.32 267.64,302.7 344.34,535.81l-671.46 137.84c-39.91,-150 -122.86,-268.92 -248.85,-356.09 -126.78,-87.16 -280.17,-130.4 -460.16,-130.4 -249.64,0 -452.33,77.03 -607.27,231.76 -155.74,154.05 -233.22,404.05 -233.22,750 0,366.21 76.7,627.7 229.3,783.1 153.38,156.08 352.16,233.79 597.11,233.79 180.77,0 336.51,-49.33 466.41,-148.65 129.91,-99.33 223.81,-254.73 280.16,-467.57z"/>
  <path id="1" class="fil1" d="M5412.5 9312.5l680.84 0 0 1572.97c0,250 8.61,411.49 25.04,485.14 28.95,118.92 97.04,214.86 205.04,286.48 108.78,72.3 256.68,108.11 444.5,108.11 190.16,0 334.16,-33.78 431.2,-102.03 97.05,-68.24 154.96,-151.35 174.52,-250.67 19.56,-99.33 29.73,-263.52 29.73,-493.24l0 -1606.76 680.84 0 0 1526.35c0,348.65 -17.99,595.27 -54.78,739.19 -36.77,143.92 -104.08,265.54 -202.69,364.86 -97.82,99.33 -229.29,177.71 -393.63,236.49 -165.12,58.78 -379.54,88.51 -644.84,88.51 -320.08,0 -562.68,-31.75 -727.8,-95.94 -165.12,-64.19 -295.81,-147.3 -392.07,-250 -96.26,-102.71 -158.86,-209.46 -189.38,-322.3 -44.61,-166.22 -66.52,-412.16 -66.52,-737.16l0 -1550z"/>
  <polygon id="2" class="fil1" points="9650.69,12215.2 9650.69,9803.04 8655.25,9803.04 8655.25,9312.5 11322.27,9312.5 11322.27,9803.04 10331.53,9803.04 10331.53,12215.2 "/>
  <polygon class="fil1" points="18251.66,12180.02 18251.66,9277.32 19271.36,9277.32 19873.94,11257.05 20469.48,9277.32 21491.52,9277.32 21491.52,12180.02 20862.34,12180.02 20859.99,9894.89 20197.15,12180.02 19542.91,12180.02 18883.2,9894.89 18880.85,12180.02 "/>
  <polygon id="1" class="fil1" points="22263.68,12180.02 22263.68,9277.32 24752.27,9277.32 24752.27,9767.86 22944.52,9767.86 22944.52,10412.45 24625.49,10412.45 24625.49,10902.99 22944.52,10902.99 22944.52,11689.48 24818.01,11689.48 24818.01,12180.02 "/>
  <polygon id="2" class="fil1" points="25486.87,12180.02 25486.87,9277.32 26145.78,9277.32 27529.39,11222.59 27529.39,9277.32 28158.58,9277.32 28158.58,12180.02 27478.52,12180.02 26116.05,10271.91 26116.05,12180.02 "/>
  <path class="fil2" d="M11291.28 8576.23l-446.9 -624.58 134.64 -76.05 160.91 224.96c11.57,-65.47 45.77,-114.32 102.56,-146.52 62.07,-35.11 127.5,-44 196.68,-27.18 69.19,17 130.46,62.94 183.84,137.63 55.31,77.12 77.27,148.43 65.7,213.56 -11.56,65.14 -46.73,114.33 -105.88,147.9 -29.19,16.44 -62.4,26.14 -100.06,29.1 -37.45,3.13 -75.46,-2.19 -114.01,-15.96l47.61 66.57 -125.09 70.57zm-35.16 -311.57c33.52,46.86 66.56,76.82 99.28,89.88 46.09,18.63 88.4,17.07 127.11,-4.85 29.76,-16.79 46.96,-42.42 51.79,-76.72 4.82,-34.46 -10.3,-75.91 -44.99,-124.5 -37,-51.7 -74.29,-83.06 -111.68,-94.06 -37.39,-10.84 -72.54,-7.01 -105.6,11.49 -32.3,18.32 -51.05,44.64 -56.46,79.11 -5.59,34.29 7.99,74.17 40.55,119.65z"/>
  <path id="1" class="fil2" d="M11968.72 7847.1l-140.76 38.39c-12.17,-52.74 -7.03,-98.28 15.56,-136.6 22.41,-38.33 68.7,-73.42 138.26,-105.46 63.37,-28.92 114.37,-43.86 153.17,-44.63 38.61,-0.94 70.25,6.07 94.73,20.85 24.48,14.61 52.7,49.38 84.46,104.33l83.61 147.96c24.37,41.86 44.42,71.82 60.57,89.55 16.14,17.9 36.94,35.28 62.6,52.29l-140.5 64.26c-8.55,-6.71 -20.22,-17.03 -35.19,-30.97 -6.62,-6.36 -11.29,-10.66 -13.61,-12.56 -12.14,32.1 -28.96,59.72 -50.63,82.7 -21.47,23.15 -47.81,41.83 -79.21,56.21 -55.23,25.28 -106.63,31.93 -153.81,19.79 -47.17,-12.15 -82.74,-38.47 -106.32,-79.29 -15.59,-26.87 -22.25,-54.27 -20,-81.86 2.26,-27.77 13.25,-53.32 32.79,-76.46 19.73,-23.15 51.68,-50.11 96.03,-81.07 59.84,-41.33 99.92,-72.8 120.05,-94.04l-7.4 -12.58c-14.03,-24.28 -30.76,-38.39 -50.17,-42.67 -19.41,-4.09 -47.91,2.34 -85.32,19.49 -25.19,11.43 -42.43,24.92 -51.51,40.28 -8.87,15.19 -11.54,36.07 -7.4,62.09zm249.35 15.55c-15.1,13.65 -40.28,33.36 -75.33,58.77 -35.05,25.59 -56.53,44.78 -64.47,57.38 -11.77,20.2 -12.5,39.34 -2.17,57.25 10.32,17.58 26.66,29.62 48.79,35.6 22.33,6.16 44.83,3.88 67.89,-6.52 25.57,-11.77 45.71,-30.43 60.19,-55.98 10.63,-19.17 13.87,-38.31 9.74,-57.27 -2.55,-12.41 -12.69,-33.77 -30.03,-64.09l-14.61 -25.14z"/>
  <path id="2" class="fil2" d="M12941.76 7926.95l-151.88 44.07 -186.85 -510.14 141.01 -40.78 26.64 72.41c11.41,-41.22 24.98,-70.03 40.28,-86.6 15.32,-16.39 35.1,-28.12 59.54,-35.2 34.72,-10.03 71.2,-11.26 109.42,-3.52l-3.96 131.23c-30.86,-7.22 -57.45,-7.73 -79.36,-1.33 -21.34,6.05 -37.43,16.57 -48.3,31.24 -11.03,14.66 -15.68,36.74 -14.3,66.4 1.58,29.66 18.31,87.93 50,174.82l57.76 157.4z"/>
  <path id="3" class="fil2" d="M13369.25 7843.69l-171.01 -724.55 156.22 -29.2 61.63 260.95c36.54,-57.74 87.99,-92.71 153.96,-105.07 71.8,-13.39 136.78,-1.28 194.75,36.19 57.98,37.46 97.3,99.57 117.79,186.15 21.06,89.68 13.42,163.13 -23.11,220.53 -36.52,57.4 -89.14,92.53 -157.83,105.24 -33.56,6.36 -68.69,5.12 -104.96,-3.87 -36.47,-8.83 -69.82,-25.74 -100.65,-50.6l18.35 77.09 -145.14 27.14zm90.51 -302.73c12.75,54.32 31.93,92.62 57.31,115.05 35.86,31.93 76.02,43.69 121.03,35.27 34.35,-6.35 60.76,-24.95 78.83,-55.63 18.07,-30.86 20.44,-74.31 7.11,-130.71 -14.1,-59.85 -36.58,-100.9 -67.21,-122.83 -30.82,-21.92 -65.35,-29.37 -103.38,-22.32 -37.45,7.04 -65.61,25.82 -84.26,56.33 -18.85,30.5 -21.99,72.05 -9.43,124.84z"/>
  <path id="4" class="fil2" d="M14568.12 7541.31l159.63 19.62c-18.64,52.35 -49.58,92.71 -92.84,120.9 -43.26,28.17 -97.86,43.14 -164.21,44.9 -104.74,2.66 -183.33,-25.86 -235.77,-85.39 -41.27,-47.71 -63.25,-108.8 -65.73,-183.11 -2.77,-88.79 20.97,-159.11 71.63,-210.62 50.65,-51.67 115.85,-78.6 195.58,-80.61 89.8,-2.41 161.38,22.19 214.92,73.44 53.72,51.26 81.07,131.29 82.43,240.09l-399.8 10.38c2.64,41.9 16.45,74.41 41.85,97.02 25.38,22.8 56.5,33.66 93.16,32.76 25.02,-0.66 45.74,-7.33 62.33,-19.84 16.8,-12.51 28.88,-32.41 36.82,-59.54zm4.4 -143.49c-2.62,-41.03 -15.46,-71.99 -38.88,-92.72 -23.44,-20.74 -51.45,-30.75 -84.05,-29.88 -34.71,0.89 -63.14,12.95 -85.1,36.01 -21.95,23.24 -32.2,53.98 -30.56,92.78l238.59 -6.19z"/>
  <path id="5" class="fil2" d="M15171.52 7709.44l-159.13 -11.7 50.04 -534.52 147.68 10.87 -7.14 76.07c28.79,-34.04 53.76,-56 74.88,-65.88 21.32,-10.05 44.79,-14.07 70.4,-12.06 36.29,2.67 70.47,14.15 102.34,34.42l-60.76 119.64c-25.47,-17.52 -49.56,-26.95 -72.65,-28.62 -22.32,-1.67 -41.71,2.33 -58.17,12.03 -16.46,9.87 -30.57,28.7 -41.93,56.48 -11.57,27.79 -21.67,87.31 -30.13,178.21l-15.43 165.06z"/>
  <path id="6" class="fil2" d="M15596.51 7577.59l162 6.33c0.56,28.28 9.66,51.22 26.91,68.82 17.44,17.6 44.4,29.51 81.26,36.09 40.55,7.11 72.35,5.75 95.83,-3.89 15.73,-6.89 25.44,-18.09 28.76,-33.61 2.33,-10.51 0.6,-19.83 -5.21,-28.1 -6.4,-7.94 -22.5,-17.09 -48.48,-27.46 -120.84,-46.99 -195.88,-83.6 -225.16,-110.01 -40.51,-36.58 -55.22,-80.22 -43.92,-130.74 9.93,-45.68 38.68,-80.32 86.23,-104.43 47.37,-23.94 113.53,-28.37 198.69,-13.49 81.08,14.21 138.69,36.49 172.8,66.86 34.32,30.2 53.69,69.7 58.3,118.34l-153.07 -1.66c-1.73,-21.56 -10.26,-39.32 -25.57,-53.31 -15.13,-14.15 -39.17,-23.99 -71.76,-29.71 -41.32,-7.1 -71.98,-7.29 -92.15,-0.06 -13.39,5.16 -21.55,13.44 -24.09,25.16 -2.14,9.83 1.15,19.14 10.07,27.94 12.02,11.74 57.98,33.32 137.69,64.76 79.72,31.45 133.24,62.35 160.95,92.54 27.33,30.54 36.03,67.8 26.09,112.11 -10.71,48.27 -42.57,85.84 -95.55,112.53 -53,26.7 -124.01,32.34 -212.85,16.75 -80.51,-14.19 -141.21,-39.76 -181.73,-77.21 -40.71,-37.27 -62.59,-82.13 -66.04,-134.55z"/>
  <path id="7" class="fil2" d="M16799.53 7173.72l-91.33 259.84c67.23,-37.44 134.98,-46.6 203.41,-27.66 34.9,9.73 64.53,24.28 88.73,43.65 24.19,19.37 40.25,40.1 48.14,62.02 7.9,22.09 10.74,44.68 8.35,67.95 -2.4,23.28 -11.81,57.92 -27.84,103.93l-105.6 300.33 -152.39 -42.24 95.05 -270.53c18.78,-53.76 27.79,-88.57 27.06,-104.61 -0.53,-16.04 -6.69,-30.36 -18.5,-42.97 -11.61,-12.62 -28.45,-21.96 -50.56,-28.05 -25.19,-7.13 -49.84,-7.87 -73.53,-2.4 -23.68,5.29 -44.08,17.83 -61.01,37.28 -16.95,19.45 -32.94,50.62 -48.19,93.7l-89.96 256.57 -152.58 -42.42 248.38 -706.63 152.37 42.24z"/>
  <path id="8" class="fil2" d="M17329.88 7781.27c22.8,-42.54 56.5,-78.94 101.31,-108.84 44.99,-29.91 94.74,-46.22 149.24,-48.94 54.5,-2.88 108.32,7 161.83,29.47 82.49,34.72 137.39,87.02 164.84,156.89 27.25,69.85 21.53,141.1 -17.15,213.91 -39.06,73.33 -98.09,122.97 -177.07,148.76 -78.98,25.78 -158.94,21.74 -239.7,-12.31 -50,-21.11 -92.32,-51.22 -126.94,-90.35 -34.61,-39.14 -53.54,-83.18 -56.39,-131.96 -3.07,-48.78 10.35,-100.94 40.03,-156.63zm144.25 69.05c-25.66,48.08 -32.36,90.37 -20.27,126.69 12.09,36.48 36.92,62.56 74.47,78.4 37.75,15.83 76.17,16.47 115.27,1.61 39.07,-14.87 71.64,-46.61 97.69,-95.38 25.29,-47.39 31.99,-89.33 20.08,-125.65 -11.89,-36.32 -36.71,-62.4 -74.27,-78.23 -37.74,-15.83 -76.17,-16.31 -115.44,-1.61 -39.28,14.7 -71.85,46.09 -97.53,94.17z"/>
  <path id="9" class="fil2" d="M18288.35 7884.61l130.92 62.95 -42.13 69.38c31.28,-15.61 66.04,-23.79 104.07,-24.72 38.03,-0.93 74.68,7.1 109.93,24.09 61.79,29.66 101.01,76.15 117.86,139.83 16.86,63.51 2.06,133.65 -44.56,210.43 -47.82,78.85 -106.78,129.73 -176.7,152.48 -69.93,22.91 -135.69,19.63 -197.28,-10.03 -29.25,-14.05 -52.86,-32.04 -70.24,-53.82 -17.59,-21.77 -31.83,-51.64 -42.96,-89.44l-144.38 237.75 -140.44 -67.46 395.91 -651.44zm0.33 294.7c-32.19,53.02 -44.18,97.83 -35.97,134.58 8.41,36.75 29.47,63.2 63.56,79.49 32.55,15.78 66.89,17.09 102.62,4.25 35.75,-12.84 69.82,-45.85 102.01,-98.87 30.05,-49.42 41.25,-91.46 33.41,-126.14 -7.64,-34.85 -28.12,-60.09 -61.05,-75.87 -34.28,-16.48 -69.97,-18.47 -106.87,-5.81 -37.11,12.66 -69.6,42.24 -97.71,88.37z"/>
  <g id="_297962800">
   <path class="fil3 str1" d="M15342.74 8901.39c12.89,-1.07 36.43,-5.47 50.16,-3.51l51.33 3.48c33.58,1.65 66.46,6.22 98.25,11.32 158.45,25.42 321.36,69.69 465.11,141.56 93.79,46.91 92.03,48.21 115.82,160.13 9.43,44.38 20.15,88.92 32.72,131.62 29.25,99.34 57.3,198.82 90.31,297.23 19.27,57.46 31.51,106.08 1.94,159.75 -9.21,16.73 -18.12,31.55 -25.36,49.71 -79.11,198.23 44.96,380.76 150.87,539.63 18.68,28.02 66.55,96.16 66.55,134.31 0,26.2 -40.79,74.53 -64.92,85.3 -32.82,14.65 -33.02,-34.33 -94.55,-47.57 -37.27,-8.02 -205.48,-10.82 -242.9,-5.74 -9.32,1.26 -13.5,-0.81 -21.77,-1.48 -59.4,-4.8 -38.47,-54.96 -38.47,-99.49 -34.63,23.18 -47.53,68.19 -25.58,104.7 9.03,15.04 22.77,27.43 35.21,39.87 6.9,6.9 12.32,12.47 19.24,19.32 7.69,7.61 13.69,9.56 19.82,18.72l-34.07 12.6c-71.73,16.78 -104.45,23.04 -151.74,83.62 -43.63,55.89 -71.48,121.87 -94.98,189.08l-45.88 142.82c-27.46,-7.33 -41.03,-117.04 -42.66,-135.89 -5.19,-59.66 -2.93,-92.64 -37.67,-142.91l-29.71 -37.25c-26.06,-26.19 -49.98,-54.15 -78.96,-77.28 -4.53,-3.61 -7.03,-6.85 -11.33,-10.99 -5.01,-4.84 -7.31,-5.5 -12.23,-10.08 -8.27,-7.69 -15.08,-13.66 -23.3,-21.34 -4.85,-4.54 -7.17,-5.35 -12.18,-10.13l-108.57 -94.34c-22.49,-22.37 -47.6,-41.39 -70,-63.92 -51.25,-51.55 -112.38,-110.5 -135.71,-180.81 -24.19,-72.88 -1.92,-305.52 9.01,-381.12 3.49,-24.13 7.85,-48.97 11.85,-73.37 8.04,-48.96 27.5,-159.62 55.04,-196.55 7.26,-9.74 11.94,-14 20.24,-22.38 4.63,-4.69 5.48,-5.3 10.81,-9.48 5.33,-4.15 6.5,-5.92 12.14,-10.17 24.47,-18.45 50.09,-34.03 76.09,-49.72 56.21,-33.89 116.68,-63.09 169.2,-102.69 20.22,-15.25 38.71,-33.6 50.53,-57.01 52.65,-104.3 67.5,-141.5 3.76,-236.48l-47.07 -66.56c-5.59,-8 -10.62,-14.1 -16.53,-22.02 -47.3,-63.31 -62.97,-88.91 -130.39,-135.4 -4.56,-3.14 -6.11,-4.37 -10.55,-7.71 -1.96,-1.47 -4.06,-2.96 -5.46,-4.7 -4.85,-5.97 -1.57,-3.08 -3.46,-6.68zm-181.56 -712.18l31.45 0 46.55 2.11c14.49,0.17 34.58,-1.4 48.22,0.47 26.96,3.69 60.43,2.72 89.54,5.83 58.52,6.27 115.99,12.58 171.02,21.74 184.58,30.72 290.03,66 447.27,131 33.51,13.84 66.4,30.2 97.4,48.69 40.27,24.04 79.62,47.25 116.22,76.52l25.8 20.88c11.06,8.55 40.48,38.2 47.97,49.42 19.88,29.8 23.9,55.83 23.9,93.77 0,79.74 -52.71,190.21 -91.97,263.11l-33.74 61.63c-2.86,4.93 -4.53,9.34 -7.55,14.76 -11.43,20.46 -22.3,40.1 -31.12,62.22 -4.91,12.37 -8.52,23.72 -4.34,36.78l33.2 106.88c6.58,23.69 15.19,49.23 21.91,73.47 34.11,123.16 121.73,415.01 121.73,535.67 0,49.74 -4.13,53.74 -37.02,86.74 -8.37,8.38 -17.71,14.86 -24.71,23.99 -3.26,4.24 -4.26,4.84 -7.8,8.43 -51.83,52.54 19.54,179.49 48.53,236.62 4.2,8.27 7.28,12.27 11.54,20.93 7.62,15.51 16.02,28.53 23.65,43.3 7.17,13.89 15.83,26.93 23.66,41.26l48.01 81.86c16.62,27.86 31.89,53.26 48.91,80.94 13.31,21.64 43.78,62.33 43.78,86.08 0,34.55 -48.22,116.04 -72.72,146.41 -8,9.9 -18.48,18.88 -30.73,24.06 -8.41,3.54 -34.21,6.1 -46.62,6.13 -26.67,0.03 -49.01,0.54 -72.88,8.27 -6.14,1.99 -12.94,5.22 -20.52,5.85 24.53,46.38 52.75,57.45 72.61,128.25 10.92,38.95 30.86,128.3 30.86,168 0,26.39 -22.53,36.08 -45.43,41.8 -12.39,3.1 -58.04,11.4 -58.04,27.18 0,16.53 11.45,43.54 19.09,53.94 13.01,17.72 18.41,25.47 22.98,50.07 7.17,38.54 8.65,92.83 8.65,137.44 0,246.07 -30.89,393.15 47.43,626.2 5.35,15.93 10.03,29.55 16.06,44.81 27.68,69.93 -0.46,80.39 -57.41,118.27 -57.32,38.15 -130.52,65.37 -197.31,78.63 -39.14,7.77 -78.95,12.68 -125.29,12.68 -141.29,0 -249.15,-40.18 -370.14,-90.45l-89.78 -42.11c-56.41,-28.21 -165.95,-90.83 -216.34,-112.37 -33.2,-14.19 -99.76,-51.07 -131.89,-17.42 -16.59,17.38 -37.47,66.76 -48.79,89.2 -40.32,79.84 -73.34,189.31 -94.67,274.6 -7.29,29.15 -30.44,121.4 -30.44,152.17l-4.06 0c-3.51,-15.1 -8.12,-24.95 -8.12,-44.63 0,-100.34 18.36,-177.63 32.83,-275.59 6.17,-41.7 -1.06,-42.73 18.17,-99.52l37.52 -118.71c6.07,-18.51 25.22,-73.83 2.86,-90.6 -36.94,-27.72 -106.64,-91.99 -143.64,-126.22l-154.2 -144.07c-10.56,-10.67 -19.76,-19.89 -30.44,-30.43 -18.44,-18.2 -59.55,-80.99 -73.44,-105.11 -31.34,-54.35 -32.02,-113.93 -16.33,-176.44 6.23,-24.81 13.78,-48.25 20.28,-73.05 3.15,-11.97 6.83,-24.58 10.16,-36.51 37.37,-133.55 99.51,-369.23 111.41,-495.26 7.85,-83.14 19.12,-168.4 28.23,-251.77 6.02,-55.08 14.9,-113.57 18.56,-168.13 5.12,-76.53 28.04,-204 -2.5,-277.36 -21.96,-52.74 -78.96,-68.15 -130.18,-82.88 -20.09,-5.76 -65.25,-21.14 -84.36,-21.14 0.42,19.24 8.11,34.97 8.11,54.79 -13.88,-3.71 -42.27,-49.16 -51.14,-62.47 -104.13,-156.24 -288.85,-179.87 -375.61,-23.42 -75.1,135.45 -63.1,283.96 -14.83,426.01 22.6,66.52 75.98,163.26 125.57,215.32 5.8,6.08 7.94,10.07 14.18,16.24 20.88,20.65 40.11,42.31 63.85,59.93 51.3,38.05 106.83,72.45 175.09,72.45 71.01,0 95.24,-33.65 123.76,-52.75 0,9.06 0.95,24.23 0.07,32.53 -2.3,21.64 -75.09,57.53 -95.4,62.86 -10.89,2.85 -40.7,9.37 -54.44,7.87 -43.67,-4.79 -68.1,-11.07 -101.8,-26.18 -27.95,-12.54 -54.59,-29.02 -78.84,-46.96l-71.78 -56.04c-16.85,-14.7 -34.92,-28.6 -50.81,-44.56l-95.13 -93.57c-5.11,-6.4 -9.29,-10.55 -13.92,-16.52 -4.76,-6.14 -9.42,-12.04 -14.14,-18.32 -4.24,-5.62 -8.56,-12.1 -16.28,-14.16 -7.09,5.21 -9.59,15.84 -13.33,25.22 -45.06,113.04 -88.94,227 -138.81,338.01l-46.03 102.08c-28.51,61.18 -65.02,138.92 -98.15,196.06 -16.44,28.36 -67.35,118.72 -87.16,131.97 0,-17 -3.9,-43.04 -5.72,-59.2 -27.21,-242.01 -59.93,-342.65 -143.57,-562.53 -21.05,-55.36 -70.33,-179.48 -85.65,-234.94 -4.91,-17.8 -10.8,-31.5 -15.79,-49.12 -9.59,-33.79 -19.91,-65.04 -29.27,-98.56 -48.61,-174.07 -87.84,-348.1 -112.79,-528.39l-5.75 -59.17c-6.39,-43.16 -6.27,-114.86 7.2,-154.81 19.59,-58.19 15.28,-89.65 7.24,-149.78 -8.46,-63.25 -5.76,-129.59 13.56,-188.56 11.75,-35.86 22.55,-68.73 35.76,-102.2 6.6,-16.74 12.14,-32.69 19.6,-49.4l21.26 -47.71c18.66,-46.08 49.12,-90.1 80.23,-128.75 61.84,-76.8 163.18,-148.62 251.54,-196.88 7.69,-4.19 14.56,-7.8 22.16,-12.34 15.3,-9.12 30.02,-16.76 46.18,-24.84 87.06,-43.52 173.2,-80.39 263.95,-115.47 59.57,-23.03 120.52,-40.99 182.46,-58.99 18.58,-5.4 36.59,-10.05 54.49,-14.5 120.35,-29.89 207.26,-49.1 334.37,-49.1 36.87,0 56.02,10.14 103.48,10.14 16.61,0 37.16,-4.86 51.27,-7.58 74.42,-14.3 154.34,-24.87 230.76,-28.95l83.26 -1.95c11.08,-0.02 14.17,-1.68 23.3,-2.1zm936.36 377.39c26.44,6.16 42.6,41.79 42.6,73.04 0,18.62 -3.97,39.81 -8.35,54.56 -14.18,47.85 -29.04,78.75 -53.87,120.63 -2.35,3.96 -0.52,1.36 -3.11,4.99 -1.54,2.15 -2.43,3.07 -3.66,4.47 0.73,-32.47 61.07,-143.69 37.29,-221.92l-10.9 -35.77zm-955.67 -275.94c11.19,-0.93 6.85,-2.22 18.75,-0.63 24.23,3.24 19.97,-1.77 59.98,9.15 49.67,13.55 83.01,33.1 124.82,57.79 18.5,10.92 38.42,25.41 54.61,38.72 38.58,31.76 58.68,48.88 92.39,90.22 24.93,30.57 59.32,82.94 59.32,125.34 0,6.6 -2.71,18.52 -4.07,24.34 -4.23,-4.87 -12.93,-32.37 -21.92,-47.06 -19.06,-31.16 -19.07,-35.56 -46.17,-71.51 -82.45,-109.33 -202.9,-177.26 -329.4,-222.49l-8.31 -3.87zm-409.86 -4.06c85.21,0 176.82,25.12 251.58,54.8 50.04,19.87 166.47,74.33 192.77,113.61l-53.32 -21.75c-58.48,-25.25 -268.69,-108.84 -330.59,-125.94 -13.95,-3.85 -47.87,-15.61 -60.44,-16.66l0 -4.06zm734.5 0c23.63,1.96 71.97,17.57 95.62,26.12 46.17,16.69 105.47,40.91 147.19,61.81 56.28,28.18 109.07,57.08 136.66,112.91 4.12,8.34 8.14,19.54 10.37,30.21 1.14,5.47 1.46,10.71 2.21,18.23 1.14,11.34 -0.2,7.26 -0.44,18.55 -13,-8.71 -40.46,-80.28 -75.7,-98.85 -10.54,-5.55 -9.23,-3.47 -19.67,-2.61 0.68,8.27 3.89,16.22 5.67,22.75 10.34,37.87 55.78,199.1 20.71,224.8 0,-30.51 -15.74,-133.33 -23.15,-159.46 -17.58,-61.97 -50.57,-95.76 -96.09,-133.18 -19.45,-15.99 -61.63,-43.59 -83.77,-56.25l-119.61 -65.03z"/>
   <path class="fil3 str1" d="M13321.85 11673.02c25.11,5.85 56.85,7.43 81.74,11.6 28.11,4.69 51.36,9.65 78.04,15.28 11.89,2.5 25.12,6.31 37.04,9.63 47.05,13.17 95.15,29.12 139.94,48.76 10.8,4.74 21.56,9.31 32.49,14.17 41.81,18.59 84.5,41.8 123.41,65.29l114.03 74.68c9.39,6.62 17.22,12.63 27.18,19.48 41.77,28.76 78.85,63.21 118.89,94.15l50.25 43.1c19.89,19.9 43.06,36.8 62.87,56.82 3.91,3.96 7.03,7.55 11.25,11.08 5.74,4.8 7.64,5.7 13.12,11.24l108.52 102.49c20.05,17.66 39.94,43.74 60.38,59.34l143.54 138.47c8.65,8.71 15.81,13.7 24.36,22.32l111.49 101.55c5.28,4.44 7.29,7.37 12.78,11.57l154.78 127.26 196.63 134.1c10.25,6.19 18.54,11.41 29.34,17.31 15.04,8.21 47.36,28.21 65.61,29.74l0.03 0c-1.6,-19.26 -35.06,-55.65 -49.21,-70.51 -15.6,-16.37 -28.55,-34.88 -44.65,-50.71 -16.43,-16.17 -29.88,-34.8 -45.64,-51.76 -38.67,-41.58 -80.32,-107.02 -111.7,-154.09 -51.54,-77.32 -98.8,-159 -146.87,-238.64 -12.24,-20.27 -24.36,-39.09 -36.27,-59.11 -35.64,-59.95 -75.92,-117.51 -115.12,-175.01 -32.14,-47.11 -68.27,-91.15 -103.62,-135.81 -22.76,-28.73 -63.89,-76.57 -90.05,-102.7l-278.86 -252.74c-17.94,-14.64 -35.55,-27.05 -54.26,-41.1 -55.49,-41.71 -113.12,-81.72 -172.75,-117.41 -64.09,-38.37 -119.08,-68.7 -186.2,-101.92 -37.29,-18.45 -41.92,-30.28 -41.92,-71.69 -12.34,0 -14.81,-2.03 -26.38,-2.03 -61.57,0 -78.57,7.59 -114.04,60.46 -11.65,17.36 -21.61,36.34 -31.38,55.87l-55.17 119.32c-16.73,40.54 -36.8,77.72 -60.75,113.74 -6.17,9.28 -11.81,17.45 -18.36,26.28 -5.93,8 -14.22,17.25 -14.51,30.13z"/>
   <path class="fil3 str1" d="M13064.17 11930.7l228.11 39.71c54.23,9.07 115.33,17.3 164.66,36.23l142.21 60.68c7.59,3.65 14.83,6.8 22.41,10.05 9.51,4.09 14.68,6.81 23.57,10.93 8.53,3.95 14.04,5.96 22.33,10.13 8.5,4.27 14.5,7.25 22.99,11.51l88.61 45.3c50.11,24.61 123.78,71.93 170.4,99.46l60.32 39.1c53.79,32.02 204.51,143.37 256.14,182.13 26.5,19.89 51.49,38.05 77.96,57.98l118.68 82.2c7.33,4.75 14.01,8.4 21.54,12.96l22.69 11.78c-1.18,-14.14 -21.5,-33.08 -29.58,-43.46 -26.14,-33.66 -115.93,-121.33 -145.42,-150.81 -6.57,-6.58 -11.71,-11.67 -18.24,-18.28 -7.25,-7.33 -12.94,-10.77 -20.32,-18.23l-38.54 -36.54c-3.36,-3.37 -5.66,-6.03 -9.15,-9.12l-190.58 -164.49c-124.38,-100.28 -211.32,-165.04 -348.48,-248.05 -91.31,-55.25 -210.73,-112.46 -315.91,-130.48 -57.71,-9.88 -73.5,-7.7 -124.94,12.51 -36.6,14.38 -70.96,26.14 -105.42,42.7 -24.15,11.6 -83.99,36.11 -96.04,54.1z"/>
   <path class="fil3 str1" d="M14226.79 9968.65l2.03 42.61c6.71,-4.92 15.27,-46.85 19.85,-63.35 3.39,-12.24 6.74,-20.5 10.89,-31.71 15.55,-42.12 49.1,-107.84 103.18,-107.84 37.62,0 70.98,31.64 88.09,57.99 16.3,25.13 37.87,74.04 11.86,100.8l-73.9 84.37c-49.16,66.98 -42.6,121.16 10.92,182.47 35.1,40.23 73.98,68.98 121.26,93.82 27,14.21 77.28,33.12 109.71,28.6 27.68,-3.85 36.41,-17.92 36.41,-42.83 0,-76.26 -83.93,-55.86 -87.22,-125.82 -0.83,-17.62 -2.82,-30.81 -9.48,-43.29 -3,-5.63 -6.81,-11.15 -11.41,-14.97 -5.33,-4.46 -11.34,-6.6 -13.16,-13.23 -0.85,-3.07 1.54,-43.63 2.41,-49.37 2.01,-13.28 3.33,-37.99 3.21,-51.58 -0.17,-18.56 3.87,-32.02 1.16,-49.87 -7.14,-47.13 0.95,-67.09 -36.46,-123.83l-24.05 -28.71c-24.4,-24.16 -63.52,-59.33 -102.98,-59.33 -33.03,0 -53.18,4.51 -79.43,26.06 -49.92,40.96 -82.89,116.72 -82.89,189.01z"/>
   <path class="fil3 str1" d="M15588.25 9792.13c25.89,0 42.04,-3.73 63.06,-7.97 104.04,-20.96 247.83,-45 347.49,5.25 54.09,27.26 92.39,83.11 157.65,49.45 23.05,-11.9 38.02,-29.06 49.34,-52.1 7.94,-16.17 6.88,-23.23 5.37,-41.3 -14.77,7.09 -27.59,14.2 -42.61,14.2 -1.72,-7.4 -3.17,-10.24 -4.9,-19.45 -1.5,-8.05 -2.07,-12.72 -5.97,-18.38 -10.49,-15.19 -87.17,-31.49 -111.72,-38.41 -35.12,-9.91 -84.17,-23.81 -119.37,-30.79 -67.51,-13.41 -73.2,-8.29 -136.12,23.16 -32.45,16.23 -104.78,53.07 -138.15,72.86 -13.32,7.91 -46.33,25.75 -58.14,35.2 -5.08,4.07 -3.99,1.03 -5.93,8.28z"/>
   <path class="fil3 str1" d="M15880.43 9966.62c-32.07,0 -72.71,-40.3 -91.3,-44.64 4.98,-18.65 54.83,-31.76 74.94,-34.63 16.06,-2.29 18.22,-4.07 30.56,4.2 -0.19,8.77 -2,9.64 -2.11,20.21 -0.07,7.33 0.59,14.81 -0.21,22.1 -1.09,9.97 -1.32,32.76 -11.88,32.76zm-150.14 -64.93c18.93,28.27 126.04,87.28 171.69,102.22 34.76,11.38 40.03,14.32 53.53,39.81 5.89,-3.94 14.2,-17.72 14.2,-26.38 0,-21.96 -37.7,-43.57 19.39,-86.11 8.22,-6.13 14,-10.15 22.35,-16.2 11.5,-8.31 36.96,-23.99 44.77,-34.37 32.95,-43.82 -78.97,-39.83 -102.75,-39.83 -54.31,0 -158.18,15.96 -204.12,43.41 -7.87,4.7 -14.99,9.76 -19.06,17.45z"/>
   <path class="fil3 str1" d="M14541.29 10439.38c13.49,0 12.46,1.15 22.31,-4.06 -6.12,-9.15 -206.55,-132.76 -239.42,-150.14 2.45,29.37 63.28,83.51 86.02,98.61 18.07,12 38.04,25.78 58.9,34.44 19.39,8.05 46.71,21.15 72.19,21.15z"/>
  </g>
  <path class="fil2" d="M9835.28 13380.59l0 274.53c51.81,-54.66 113.9,-82.08 185.88,-82.08 37.05,0 70.42,6.04 100.12,18.11 29.68,12.24 51.99,27.59 67.12,46.56 15.13,18.79 25.42,39.66 30.85,62.59 5.63,22.94 8.35,58.46 8.35,106.57l0 314.54 -159.49 0 0 -283.15c0,-56.22 -3.1,-91.91 -9.12,-107.09 -6.21,-15.17 -17.07,-27.25 -32.6,-36.04 -15.51,-8.97 -34.92,-13.45 -58.39,-13.45 -26.78,0 -50.64,5.69 -71.79,17.24 -21.14,11.39 -36.48,28.63 -46.18,51.74 -9.89,22.93 -14.75,57.08 -14.75,102.08l0 268.67 -159.47 0 0 -740.82 159.47 0z"/>
  <path id="1" class="fil2" d="M10655.41 13749.97l-144.35 -22.77c16.3,-52.42 44.43,-91.22 84.21,-116.39 39.77,-25.18 98.95,-37.77 177.34,-37.77 71.19,0 124.36,7.42 159.28,22.42 34.73,15 59.37,33.97 73.54,57.08 14.16,23.1 21.34,65.35 21.34,127.09l-2.33 165.54c0,47.08 2.52,81.91 7.56,104.33 5.05,22.42 14.56,46.39 28.52,71.91l-158.31 0c-4.07,-9.31 -9.32,-23.11 -15.33,-41.39 -2.53,-8.45 -4.46,-13.96 -5.63,-16.55 -27.16,23.8 -56.26,41.56 -87.3,53.46 -31.05,11.9 -64.03,17.93 -99.15,17.93 -61.89,0 -110.79,-15 -146.49,-45.01 -35.7,-29.83 -53.54,-67.77 -53.54,-113.64 0,-30.17 8.15,-57.25 24.45,-81.05 16.29,-23.62 38.99,-41.9 68.48,-54.49 29.3,-12.59 71.6,-23.62 126.89,-33.11 74.5,-12.41 126.31,-24.14 155.02,-34.83l0 -14.31c0,-27.59 -7.57,-47.25 -22.7,-59.15 -15.33,-11.73 -44.04,-17.59 -86.14,-17.59 -28.52,0 -50.64,5 -66.55,15.17 -16.1,10.01 -28.91,27.77 -38.81,53.12zm214.2 114.84c-20.37,6.04 -52.78,13.28 -97.21,21.73 -44.22,8.45 -73.33,16.73 -86.91,24.66 -20.76,13.28 -31.24,29.83 -31.24,50.01 0,20 8.34,37.08 25.03,51.56 16.68,14.49 37.84,21.73 63.63,21.73 28.72,0 56.27,-8.45 82.46,-25.18 19.21,-12.93 32.01,-28.45 38.03,-47.08 4.08,-12.07 6.21,-35.17 6.21,-69.14l0 -28.29z"/>
  <path id="2" class="fil2" d="M11331.59 13512l0 -131.41 159.47 0 0 131.41 -159.47 0zm0 609.41l0 -536.99 159.47 0 0 536.99 -159.47 0z"/>
  <path id="3" class="fil2" d="M11954.98 14121.41l-159.49 0 0 -536.99 147.85 0 0 76.22c25.41,-36.04 48.31,-59.66 68.67,-70.87 20.38,-11.21 43.47,-16.73 69.28,-16.73 36.47,0 71.59,8.97 105.34,26.73l-49.47 123.81c-26.97,-15.52 -51.99,-23.28 -75.09,-23.28 -22.5,0 -41.52,5.52 -57.03,16.39 -15.53,11.03 -27.75,30.69 -36.68,59.32 -8.92,28.62 -13.38,88.63 -13.38,179.85l0 165.55z"/>
  <path id="4" class="fil2" d="M12929.16 13743.76l-157.15 24.83c-5.24,-27.76 -17.26,-48.63 -36.09,-62.77 -18.82,-13.97 -43.07,-21.04 -72.95,-21.04 -39.77,0 -71.59,12.25 -95.26,36.73 -23.67,24.49 -35.51,65.36 -35.51,122.78 0,63.81 12.03,108.82 36.09,135.2 24.06,26.38 56.27,39.49 96.62,39.49 30.27,0 55.1,-7.76 74.31,-23.11 19.4,-15.35 32.99,-41.73 40.94,-79.32l157.15 23.79c-16.29,64.15 -47.53,112.61 -93.71,145.37 -46.18,32.77 -108.07,49.15 -185.87,49.15 -88.09,0 -158.51,-24.83 -210.89,-74.32 -52.58,-49.67 -78.77,-118.3 -78.77,-206.07 0,-88.81 26.38,-157.79 78.96,-207.28 52.57,-49.49 123.78,-74.15 213.61,-74.15 73.34,0 131.74,14.14 175.21,42.25 43.26,28.11 74.3,70.87 93.31,128.47z"/>
  <path id="5" class="fil2" d="M13597.18 14121.41l0 -80.36c-22.11,28.63 -51.03,51.39 -86.92,68.46 -35.89,16.9 -73.73,25.35 -113.5,25.35 -40.74,0 -77.22,-7.93 -109.43,-23.8 -32.4,-15.86 -55.68,-38.28 -70.04,-66.9 -14.54,-28.8 -21.72,-68.46 -21.72,-119.16l0 -340.58 159.47 0 0 247.29c0,75.7 2.92,121.91 8.94,138.98 5.81,17.08 16.48,30.7 32.2,40.53 15.52,10 35.31,15 59.37,15 27.35,0 51.8,-6.72 73.54,-20 21.72,-13.28 36.47,-29.83 44.43,-49.67 7.95,-19.83 12.02,-68.11 12.02,-145.19l0 -226.94 159.49 0 0 536.99 -147.85 0z"/>
  <path id="6" class="fil2" d="M14332.33 13584.42l0 112.78 -109.43 0 0 217.45c0,44.15 0.97,69.84 3.11,77.08 2.13,7.25 6.79,13.28 14.35,18.11 7.37,4.66 16.31,7.07 26.97,7.07 14.94,0 36.29,-4.48 64.41,-13.62l13.39 110.36c-37.06,14.14 -78.96,21.21 -125.91,21.21 -28.72,0 -54.52,-4.31 -77.61,-12.93 -23.09,-8.62 -39.97,-19.83 -50.64,-33.46 -10.87,-13.79 -18.24,-32.24 -22.5,-55.7 -3.3,-16.55 -5.05,-50 -5.05,-100.53l0 -235.04 -73.34 0 0 -112.78 73.34 0 0 -106.57 159.48 -83.81 0 190.38 109.43 0z"/>
  <path id="7" class="fil2" d="M15653.03 14031.57l-96.82 109.5c-47.35,-20.52 -92.94,-48.8 -136.59,-84.84 -33.56,26.9 -69.45,46.73 -107.29,59.49 -37.84,12.76 -82.84,19.14 -135.23,19.14 -103.61,0 -181.6,-26.04 -233.99,-77.94 -40.55,-40.01 -60.72,-86.23 -60.72,-138.48 0,-47.59 15.91,-90.36 47.92,-128.29 31.82,-37.94 79.54,-70.88 142.99,-98.81 -28.52,-30.01 -50.06,-58.63 -64.41,-85.88 -14.56,-27.25 -21.74,-52.94 -21.74,-77.26 0,-44.83 20.18,-82.94 60.54,-114.15 40.16,-31.21 97.78,-46.91 172.29,-46.91 71.78,0 128.05,16.39 168.6,48.98 40.55,32.76 60.72,72.6 60.72,119.84 0,30.01 -9.89,58.46 -29.87,85.36 -19.98,26.91 -60.15,57.43 -120.68,91.4l114.66 137.09c13.58,-21.38 25.22,-49.49 35.11,-83.98l144.75 28.8c-14.36,45.52 -26.97,78.98 -37.65,100.02 -10.47,21.04 -21.91,38.8 -34.14,52.94 17.85,14.83 40.94,31.04 69.27,48.8 28.32,17.76 49.08,29.49 62.28,35.18zm-434.81 -403.52l42.88 -29.49c31.63,-21.9 47.35,-43.63 47.35,-65.18 0,-18.28 -7.56,-33.8 -22.9,-46.56 -15.13,-12.93 -35.7,-19.32 -61.69,-19.32 -25.22,0 -45.01,5.7 -59.37,16.9 -14.17,11.39 -21.34,24.49 -21.34,39.32 0,17.59 12.02,38.8 36.08,63.81l38.99 40.52zm-62.46 154.51c-36.48,16.55 -63.84,36.56 -82.08,59.84 -18.04,23.28 -27.16,47.07 -27.16,71.22 0,30.69 11.25,55.87 33.77,75.18 22.31,19.49 52.38,29.14 90.21,29.14 24.84,0 48.89,-4.31 71.79,-13.1 23.09,-8.8 48.11,-23.28 75.28,-43.63l-161.81 -178.65z"/>
  <path id="8" class="fil2" d="M16169.52 13970.35l160.65 -21.73c6.79,27.42 20.56,48.29 41.51,62.43 20.76,14.31 50.06,21.38 87.51,21.38 41.33,0 72.37,-6.73 93.32,-20.18 13.98,-9.48 20.95,-22.24 20.95,-38.11 0,-10.69 -3.87,-19.66 -11.44,-26.73 -7.96,-6.72 -25.8,-13.1 -53.35,-18.79 -129.03,-25.35 -210.72,-48.46 -245.25,-69.32 -47.91,-29.15 -71.78,-69.5 -71.78,-121.06 0,-46.73 20.76,-85.88 62.09,-117.61 41.32,-31.72 105.34,-47.59 192.08,-47.59 82.65,0 144.15,12.07 184.31,36.04 40.16,24.14 67.9,59.67 83.04,106.74l-150.17 24.84c-6.41,-21.04 -18.82,-37.25 -36.86,-48.46 -18.05,-11.21 -43.85,-16.73 -77.42,-16.73 -42.29,0 -72.56,5.17 -90.99,15.69 -12.23,7.42 -18.24,17.08 -18.24,28.8 0,10.18 5.23,18.8 15.91,25.87 14.55,9.48 64.41,22.76 149.78,40.01 85.37,17.24 144.93,38.28 178.69,63.28 33.57,25.18 50.26,60.53 50.26,105.71 0,49.15 -23.09,91.57 -69.47,126.92 -46.17,35.35 -114.66,53.11 -205.46,53.11 -82.26,0 -147.45,-14.83 -195.57,-44.32 -47.92,-29.49 -79.36,-69.49 -94.1,-120.19z"/>
  <path id="9" class="fil2" d="M17178.62 13380.59l0 274.53c51.81,-54.66 113.89,-82.08 185.88,-82.08 37.05,0 70.42,6.04 100.11,18.11 29.68,12.24 51.99,27.59 67.12,46.56 15.14,18.79 25.42,39.66 30.86,62.59 5.62,22.94 8.34,58.46 8.34,106.57l0 314.54 -159.48 0 0 -283.15c0,-56.22 -3.11,-91.91 -9.13,-107.09 -6.21,-15.17 -17.06,-27.25 -32.59,-36.04 -15.52,-8.97 -34.92,-13.45 -58.39,-13.45 -26.78,0 -50.65,5.69 -71.8,17.24 -21.14,11.39 -36.47,28.63 -46.17,51.74 -9.89,22.93 -14.75,57.08 -14.75,102.08l0 268.67 -159.48 0 0 -740.82 159.48 0z"/>
  <path id="10" class="fil2" d="M17998.75 13749.97l-144.35 -22.77c16.3,-52.42 44.43,-91.22 84.2,-116.39 39.77,-25.18 98.95,-37.77 177.34,-37.77 71.2,0 124.36,7.42 159.28,22.42 34.74,15 59.38,33.97 73.54,57.08 14.17,23.1 21.34,65.35 21.34,127.09l-2.32 165.54c0,47.08 2.52,81.91 7.56,104.33 5.05,22.42 14.56,46.39 28.52,71.91l-158.32 0c-4.07,-9.31 -9.31,-23.11 -15.32,-41.39 -2.53,-8.45 -4.47,-13.96 -5.64,-16.55 -27.16,23.8 -56.25,41.56 -87.3,53.46 -31.05,11.9 -64.03,17.93 -99.14,17.93 -61.89,0 -110.79,-15 -146.49,-45.01 -35.7,-29.83 -53.55,-67.77 -53.55,-113.64 0,-30.17 8.15,-57.25 24.45,-81.05 16.29,-23.62 39,-41.9 68.49,-54.49 29.3,-12.59 71.59,-23.62 126.89,-33.11 74.49,-12.41 126.31,-24.14 155.02,-34.83l0 -14.31c0,-27.59 -7.57,-47.25 -22.71,-59.15 -15.32,-11.73 -44.03,-17.59 -86.14,-17.59 -28.52,0 -50.64,5 -66.55,15.17 -16.1,10.01 -28.9,27.77 -38.8,53.12zm214.2 114.84c-20.38,6.04 -52.78,13.28 -97.21,21.73 -44.23,8.45 -73.34,16.73 -86.92,24.66 -20.76,13.28 -31.23,29.83 -31.23,50.01 0,20 8.34,37.08 25.02,51.56 16.69,14.49 37.84,21.73 63.64,21.73 28.71,0 56.27,-8.45 82.46,-25.18 19.2,-12.93 32.01,-28.45 38.03,-47.08 4.07,-12.07 6.21,-35.17 6.21,-69.14l0 -28.29z"/>
  <path id="11" class="fil2" d="M18841 14121.41l-243.5 -536.99 167.63 0 113.7 274.01 32.98 91.57c8.74,-23.28 14.36,-38.63 16.5,-46.04 5.42,-15.18 11.06,-30.35 17.26,-45.53l115.26 -274.01 164.13 0 -240 536.99 -143.96 0z"/>
  <path id="12" class="fil2" d="M19819.05 13951.73l159.49 23.79c-20.37,51.91 -52.77,91.4 -96.82,118.64 -44.23,27.08 -99.53,40.7 -165.68,40.7 -104.98,0 -182.78,-30.52 -233.03,-91.57 -39.77,-48.97 -59.75,-110.71 -59.75,-185.37 0,-88.98 26.19,-158.82 78.39,-209.18 52.18,-50.52 118.35,-75.7 198.28,-75.7 89.63,0 160.45,26.38 212.45,79.15 51.8,52.77 76.63,133.65 74.3,242.63l-399.28 0c1.16,42.08 13.97,74.84 38.61,98.29 24.44,23.45 55.1,35.18 91.58,35.18 25.02,0 45.97,-6.03 62.86,-18.11 17.07,-12.07 29.87,-31.55 38.6,-58.45zm9.32 -143.82c-1.16,-41.22 -13,-72.6 -35.7,-93.98 -22.69,-21.56 -50.25,-32.25 -82.84,-32.25 -34.74,0 -63.45,11.38 -86.15,33.97 -22.7,22.59 -33.76,53.46 -33.37,92.26l238.06 0z"/>
 </g>
</svg>
